<svg aria-hidden="true" style="position:absolute;width:0;height:0" xmlns="http://www.w3.org/2000/svg" overflow="hidden"><defs><symbol id="icon-burger" viewBox="0 0 32 32"><path d="M0 6.4h32M0 16h32M0 25.6h32"/></symbol><symbol id="icon-close" viewBox="0 0 32 32"><path d="M2.52 2l26.96 28M2 29.48L30 2.52"/></symbol><symbol id="icon-facebook" viewBox="0 0 32 32"><path d="M22.266 15.97H18.09v15.39h-6.328V15.968H8.754V10.56h3.008V7.062c0-2.504 1.184-6.422 6.384-6.422l4.688.019v5.25h-3.402c-.557 0-1.342.282-1.342 1.475v3.184h4.73l-.554 5.4z"/></symbol><symbol id="icon-github" viewBox="0 0 32 32"><path d="M16 .941C7.728.941.941 7.73.941 16c0 7.059 4.954 13.47 11.53 15.059v-4.982c-.651.144-1.251.147-1.915-.048-.89-.264-1.613-.856-2.149-1.76-.342-.576-.949-1.203-1.581-1.157l-.155-1.758c1.368-.117 2.55.834 3.253 2.014.312.525.672.832 1.133.968.445.131.923.069 1.482-.128.139-1.117.651-1.536 1.037-2.123-3.922-.586-5.485-2.667-6.106-4.309-.822-2.181-.381-4.906 1.072-6.627.029-.032.08-.122.061-.182-.667-2.014.144-3.68.176-3.856.768.227.893-.229 3.341 1.258l.422.254c.176.106.122.045.299.032.943-.266 2.029-.428 3.15-.445h.01c1.147.018 2.247.183 3.294.478l-.09-.022.138.014c-.013-.002.037-.01.12-.059 3.056-1.851 2.947-1.246 3.766-1.512.03.176.832 1.869.171 3.856-.088.275 2.651 2.784 1.133 6.811-.621 1.643-2.184 3.723-6.106 4.309.502.768 1.107 1.174 1.104 2.755v6.219c6.576-1.589 11.53-8 11.53-15.059 0-8.272-6.787-15.059-15.059-15.059z"/></symbol><symbol id="icon-home" viewBox="0 0 32 32"><path d="M30.129 15.446c.236-.253.381-.594.381-.969 0-.433-.194-.822-.499-1.082l-.002-.002L16.372 1.624a1.7123 1.7123 0 00-1.093-.393c-.43 0-.823.158-1.124.419l.002-.002L.476 14.02c-.292.26-.475.637-.475 1.057 0 .388.156.739.409.994l.345.352c.566.586 1.487.655 2.053.155l1.022-.903v13.226c.006.811.665 1.467 1.477 1.467h5.356c.812 0 1.471-.656 1.477-1.467v-9.253h6.804v9.253c-.012.812.576 1.467 1.398 1.467h5.662c.812 0 1.471-.656 1.477-1.467V15.862l.633.546c.347.3 1.078.059 1.63-.542l.389-.418z"/></symbol><symbol id="icon-telegram" viewBox="0 0 32 32"><path d="M12.965 19.8l-.509 6.672c.726 0 1.042-.293 1.419-.642l3.408-3.04 7.064 4.827c1.296.672 2.208.318 2.557-1.112l4.637-20.277h.002c.411-1.789-.693-2.486-1.955-2.048L2.337 13.918c-1.859.672-1.832 1.642-.317 2.08l6.968 2.022 16.184-9.451c.762-.47 1.453-.211.883.261L12.965 19.8z"/></symbol><symbol id="icon-three-dots" viewBox="0 0 32 32"><path d="M19.692 16c0 2.039-1.653 3.692-3.692 3.692S12.308 18.039 12.308 16s1.653-3.692 3.692-3.692 3.692 1.653 3.692 3.692zM7.385 16c0 2.039-1.653 3.692-3.692 3.692S.001 18.039.001 16s1.653-3.692 3.692-3.692S7.385 13.961 7.385 16zM32 16c0 2.039-1.653 3.692-3.692 3.692S24.616 18.039 24.616 16s1.653-3.692 3.692-3.692S32 13.961 32 16z"/></symbol><symbol id="arrow-right2" viewBox="0 0 32 32"><path d="M19.414 27.414l10-10c.781-.781.781-2.047 0-2.828l-10-10c-.781-.781-2.047-.781-2.828 0s-.781 2.047 0 2.828L23.172 14H4c-1.105 0-2 .895-2 2s.895 2 2 2h19.172l-6.586 6.586c-.39.39-.586.902-.586 1.414s.195 1.024.586 1.414c.781.781 2.047.781 2.828 0z"/></symbol><symbol id="button-arrow" viewBox="0 0 26 32"><path d="M5.172 3.2L19.341 16 5.172 28.8"/></symbol></defs></svg>